<?xml version="1.0" ?><!DOCTYPE svg  PUBLIC '-//W3C//DTD SVG 1.1//EN'  'http://www.w3.org/Graphics/SVG/1.1/DTD/svg11.dtd'><svg enable-background="new 0 0 512 512" id="Layer_1" version="1.1" viewBox="0 0 512 512" xml:space="preserve" xmlns="http://www.w3.org/2000/svg" xmlns:xlink="http://www.w3.org/1999/xlink"><g><path d="M495.3,133.7c0,35.5-0.1,71,0.1,106.4c0,4.8-1.2,6.8-6,6.2c-0.8-0.1-1.7,0-2.5,0   c-61.6,0.3-123.2,0.6-184.9,1c-20.1,0.1-40.3,0.3-60.4,0.7c-4.9,0.1-6.6-1.3-6.6-6.5c0.2-59.3,0.2-118.6,0-177.9   c0-5.1,1.1-7.2,6.7-7.8c22.5-2.7,44.8-5.9,67.2-9c31-4.4,61.9-9,92.8-13.4c29.5-4.2,59-8.1,88.5-12.3c4.7-0.7,5.2,1.3,5.2,5.2   C495.3,62,495.3,97.9,495.3,133.7z" fill="#00ACEE"/><path d="M213.1,154.4c0,29.3,0,58.7,0,88c0,6.4,0,6.4-6.6,6.4c-12.2,0.1-24.3,0.1-36.5,0.2   c-48.8,0.3-97.6,0.6-146.4,1c-7.1,0-7.1,0.1-7.1-6.9c0-49.8,0-99.6,0-149.5c0-6.9,0.1-6.6,6.9-7.6c17.6-2.4,35.2-5.1,52.8-7.6   c13.5-1.9,27.1-3.5,40.6-5.3c27.2-3.7,54.4-7.6,81.5-11.4c3.9-0.6,7.8-1.7,11.8-1.7c2.1,0,3.1,0.7,3,2.9c-0.1,1.7,0,3.3,0,5   C213.1,96.7,213.1,125.5,213.1,154.4z M210,153.8c0-28.6-0.1-57.3,0.1-85.9c0-4.2-1.5-5.1-5.2-4.9c-3.1,0.2-5.5,2-8.6,2.2   c-6.6,0.4-13.1,1.6-19.7,2.5c-12.9,1.8-25.9,3.4-38.7,5.4c-7.8,1.2-15.9,1.1-23.4,4.2c-1.3,0.5-2.6,0.9-3.9,0.4   c-4.2-1.7-8.5-0.2-12.2,0.7c-9.4,2.4-19.1,3-28.7,4.3c-8,1.1-16,2.7-24.1,3c-6.8,0.2-12.9,3.7-19.9,3.4c-6-0.3-6.8,0.8-6.8,7   c0,48,0,95.9,0,143.9c0,6.5,0.7,7,7.2,7.1c31.9,0.5,63.9-1.5,95.8-1.1c26.6,0.3,53.3,0.1,79.9,0c7.7,0,8.1-0.3,8.1-8.3   C210,209.7,210,181.8,210,153.8z" fill="#35ABD5"/><path d="M213.1,365.3c0,29.5-0.1,59,0.1,88.5c0,4.5-0.9,6.1-5.7,5.3c-14.4-2.3-28.9-4.3-43.4-6.3   c-15-2.1-30-3.8-45-6c-21.2-3-42.4-6.3-63.7-9.3c-11.2-1.6-22.4-3.2-33.6-4.4c-4-0.4-5.4-1.7-5.4-5.8c0.1-50.8,0.1-101.6,0-152.5   c0-4.3,1.1-6.3,5.7-5.5c2.1,0.3,4.3,0.1,6.5,0.1c59.8,0.3,119.6,0.7,179.4,0.9c4.3,0,5.3,1.4,5.2,5.4   C213,305.6,213.1,335.4,213.1,365.3z M210,365.4c0-28-0.2-56,0.1-83.9c0.1-7.3-3.2-8.4-8.6-8.4c-8.2,0-16.3,0.4-24.6,0.2   c-36.6-1-73.2,0.7-109.8-1.1c-13.8-0.7-27.6-0.1-41.5-0.1c-6.1,0-6.8,0.8-6.8,7c0,48.1,0,96.3,0,144.4c0,6.5,1,7.1,7.4,7.7   c9.9,0.9,19.8,1.7,29.5,3.6c12.2,2.3,24.5,3.6,36.8,5.3c6.4,0.9,13,1.1,19.1,2.6c8.7,2,17.5,2.6,26.2,4c9.5,1.6,19.3,2.8,29,3.8   c12.4,1.4,24.9,2.8,37.2,5.5c4,0.9,5.9-0.3,5.9-5.1C209.9,422.3,210,393.8,210,365.4z" fill="#35ABD5"/><path d="M495.7,385.7c0,35.3,0,70.6,0,106c0,7.7,0,7.8-7.9,6.7c-18.8-2.7-37.5-5.5-56.3-8.1   c-25.9-3.6-51.8-7-77.6-10.7c-24.5-3.4-49.1-6.9-73.6-10.6c-13.6-2.1-27.4-3.2-41-5.7c-4.3-0.8-4.4-2.7-4.4-5.9c0-32.5,0-65,0-97.5   c0-27.7,0-55.3,0-83c0-6.1,0.2-6.5,6.6-6.4c83.1,1.4,166.2,1.4,249.3,1.8c4.2,0,4.9,1.7,4.9,5.3   C495.7,313.7,495.7,349.7,495.7,385.7C495.7,385.7,495.7,385.7,495.7,385.7z M494,384.7c0-27.3,0-54.7,0-82c0-7.8,0-15.7,0-23.5   c0-2,0.4-4.1-2.7-4.3c-3.5-0.2-6.9-0.8-10.4-0.9c-34.8-0.6-69.6,0-104.4-0.8c-44.1-1-88.3-0.3-132.5-0.3c-7,0-7,0-7,6.8   c0,55.3,0,110.6,0,166c0,4,0.1,8,0,12c-0.1,3,1.2,4,4.2,4.2c4.8,0.3,9.5,1.4,14.3,1.5c8.3,0.2,16.2,3.1,24.6,3.5   c8.1,0.4,16.1,1.5,24.1,2.5c9.5,1.3,18.9,4,28.4,4.1c10.7,0.1,20.9,3.4,31.5,4c9.9,0.6,19.6,2.9,29.4,4.3   c11.6,1.6,23.3,2.8,34.9,4.7c9,1.5,18,2.2,27,3.4c9.4,1.3,18.6,3.5,28.1,3c0.7,0,1.5,0.7,2.2,1c5.8,2.5,8.3,0.9,8.3-5.5   C494,454,494,419.4,494,384.7z" fill="#35ABD5"/><path d="M210,153.8c0,28,0,56,0,83.9c0,8-0.3,8.3-8.1,8.3c-26.6,0-53.3,0.3-79.9,0c-32-0.4-63.9,1.5-95.8,1.1   c-6.5-0.1-7.2-0.7-7.2-7.1c0-48,0-95.9,0-143.9c0-6.2,0.8-7.3,6.8-7c6.9,0.4,13.1-3.2,19.9-3.4c8.1-0.2,16.1-1.9,24.1-3   c9.5-1.3,19.2-1.8,28.7-4.3c3.7-1,8-2.4,12.2-0.7c1.3,0.5,2.6,0.1,3.9-0.4c7.5-3.1,15.6-3,23.4-4.2c12.9-2,25.8-3.7,38.7-5.4   c6.5-0.9,13.1-2.1,19.7-2.5c3.1-0.2,5.6-2,8.6-2.2c3.8-0.2,5.2,0.8,5.2,4.9C210,96.5,210,125.1,210,153.8z" fill="#00ACEE"/><path d="M210,365.4c0,28.5-0.1,57,0.1,85.4c0,4.8-1.9,6-5.9,5.1c-12.3-2.7-24.8-4.2-37.2-5.5   c-9.7-1.1-19.5-2.3-29-3.8c-8.7-1.4-17.5-2-26.2-4c-6.1-1.4-12.7-1.7-19.1-2.6c-12.3-1.7-24.6-3-36.8-5.3   c-9.7-1.9-19.6-2.7-29.5-3.6c-6.5-0.6-7.4-1.1-7.4-7.7c0-48.1,0-96.3,0-144.4c0-6.3,0.7-7,6.8-7c13.8,0,27.7-0.6,41.5,0.1   c36.6,1.8,73.2,0,109.8,1.1c8.2,0.2,16.4-0.1,24.6-0.2c5.4,0,8.7,1.1,8.6,8.4C209.8,309.4,210,337.4,210,365.4z" fill="#00ACEE"/><path d="M494,384.7c0,34.7,0,69.3,0,104c0,6.4-2.5,8-8.3,5.5c-0.8-0.3-1.5-1-2.2-1c-9.5,0.5-18.8-1.7-28.1-3   c-9-1.2-18-1.9-27-3.4c-11.6-2-23.3-3.1-34.9-4.7c-9.8-1.4-19.6-3.7-29.4-4.3c-10.6-0.7-20.7-3.9-31.5-4   c-9.5-0.1-18.9-2.8-28.4-4.1c-8-1.1-16.1-2.1-24.1-2.5c-8.3-0.4-16.2-3.3-24.6-3.5c-4.8-0.1-9.5-1.2-14.3-1.5   c-2.9-0.2-4.2-1.3-4.2-4.2c0.1-4,0-8,0-12c0-55.3,0-110.6,0-166c0-6.8,0-6.8,7-6.8c44.2,0,88.3-0.7,132.5,0.3   c34.8,0.8,69.6,0.2,104.4,0.8c3.5,0.1,6.9,0.7,10.4,0.9c3.1,0.1,2.7,2.3,2.7,4.3c0,7.8,0,15.7,0,23.5   C494,330.1,494,357.4,494,384.7z" fill="#00ACEE"/></g></svg>